<mxfile host="app.diagrams.net" modified="2024-02-17T18:20:49.697Z" agent="Mozilla/5.0 (Windows NT 10.0; Win64; x64) AppleWebKit/537.36 (KHTML, like Gecko) Chrome/121.0.0.0 Safari/537.36" etag="jY_yhtc1k9ILhppLMhVj" version="23.1.5" type="github">
  <diagram name="Page-1" id="jeJ270xwHgytrX2s15NY">
    <mxGraphModel dx="1050" dy="522" grid="1" gridSize="10" guides="1" tooltips="1" connect="1" arrows="1" fold="1" page="1" pageScale="1" pageWidth="850" pageHeight="1100" math="0" shadow="0">
      <root>
        <mxCell id="0" />
        <mxCell id="1" parent="0" />
        <mxCell id="BMyO0idb_BcNORoN5nzz-1" value="" style="rounded=0;whiteSpace=wrap;html=1;" vertex="1" parent="1">
          <mxGeometry x="260" y="170" width="280" height="240" as="geometry" />
        </mxCell>
        <mxCell id="BMyO0idb_BcNORoN5nzz-2" value="User" style="shape=umlActor;verticalLabelPosition=bottom;verticalAlign=top;html=1;outlineConnect=0;" vertex="1" parent="1">
          <mxGeometry x="190" y="260" width="30" height="60" as="geometry" />
        </mxCell>
        <mxCell id="BMyO0idb_BcNORoN5nzz-3" value="&amp;lt;&amp;lt; Service &amp;gt;&amp;gt;&lt;br&gt;DataBase&lt;div&gt;&lt;br/&gt;&lt;/div&gt;" style="shape=umlActor;verticalLabelPosition=bottom;verticalAlign=top;html=1;outlineConnect=0;" vertex="1" parent="1">
          <mxGeometry x="580" y="170" width="30" height="60" as="geometry" />
        </mxCell>
        <mxCell id="BMyO0idb_BcNORoN5nzz-4" value="Developer" style="shape=umlActor;verticalLabelPosition=bottom;verticalAlign=top;html=1;outlineConnect=0;" vertex="1" parent="1">
          <mxGeometry x="580" y="340" width="30" height="60" as="geometry" />
        </mxCell>
        <mxCell id="BMyO0idb_BcNORoN5nzz-5" value="MultiPixel Painting Managment System" style="shape=tape;whiteSpace=wrap;html=1;" vertex="1" parent="1">
          <mxGeometry x="320" width="160" height="160" as="geometry" />
        </mxCell>
        <mxCell id="BMyO0idb_BcNORoN5nzz-10" value="Create Own Pixel Art" style="ellipse;whiteSpace=wrap;html=1;" vertex="1" parent="1">
          <mxGeometry x="280" y="190" width="65" height="40" as="geometry" />
        </mxCell>
        <mxCell id="BMyO0idb_BcNORoN5nzz-11" value="Follow Pixel Art Template" style="ellipse;whiteSpace=wrap;html=1;" vertex="1" parent="1">
          <mxGeometry x="280" y="240" width="65" height="40" as="geometry" />
        </mxCell>
        <mxCell id="BMyO0idb_BcNORoN5nzz-12" value="Sign In" style="ellipse;whiteSpace=wrap;html=1;" vertex="1" parent="1">
          <mxGeometry x="350" y="190" width="65" height="40" as="geometry" />
        </mxCell>
        <mxCell id="BMyO0idb_BcNORoN5nzz-13" value="" style="ellipse;whiteSpace=wrap;html=1;" vertex="1" parent="1">
          <mxGeometry x="350" y="290" width="65" height="40" as="geometry" />
        </mxCell>
        <mxCell id="BMyO0idb_BcNORoN5nzz-15" value="" style="ellipse;whiteSpace=wrap;html=1;" vertex="1" parent="1">
          <mxGeometry x="425" y="190" width="65" height="40" as="geometry" />
        </mxCell>
        <mxCell id="BMyO0idb_BcNORoN5nzz-16" value="View Gallery Workshop" style="ellipse;whiteSpace=wrap;html=1;" vertex="1" parent="1">
          <mxGeometry x="280" y="290" width="65" height="40" as="geometry" />
        </mxCell>
        <mxCell id="BMyO0idb_BcNORoN5nzz-17" value="Upload Templates" style="ellipse;whiteSpace=wrap;html=1;" vertex="1" parent="1">
          <mxGeometry x="350" y="240" width="65" height="40" as="geometry" />
        </mxCell>
      </root>
    </mxGraphModel>
  </diagram>
</mxfile>
